<svg xmlns="http://www.w3.org/2000/svg" viewBox="0 0 25 25">
<path d="M21.9,0.5H3.1c-1.4,0-2.6,1.2-2.6,2.6v18.8c0,1.4,1.2,2.6,2.6,2.6h18.8c1.4,0,2.6-1.2,2.6-2.6V3.1
	C24.5,1.7,23.3,0.5,21.9,0.5z M13.9,20.3c-0.4,0.3-0.8,0.5-1.4,0.5c-0.6,0-1.1-0.2-1.4-0.5c-0.3-0.3-0.5-0.8-0.5-1.3
	c0-0.5,0.2-1,0.5-1.3c0.3-0.3,0.8-0.5,1.4-0.5c0.6,0,1,0.2,1.4,0.5c0.3,0.3,0.5,0.8,0.5,1.3C14.4,19.6,14.2,20,13.9,20.3z
	 M18.1,10.6c-0.2,0.5-0.5,0.9-0.8,1.2c-0.3,0.3-0.8,0.7-1.3,1.1c-0.4,0.3-0.7,0.6-1,0.8c-0.3,0.2-0.5,0.5-0.6,0.9
	C14.1,15,14,15.3,14,15.8h-3.1c0-0.7,0.2-1.3,0.4-1.8c0.2-0.5,0.5-0.9,0.8-1.2c0.3-0.3,0.7-0.7,1.3-1.1c0.4-0.4,0.7-0.6,0.9-0.8
	c0.2-0.2,0.4-0.5,0.6-0.8c0.1-0.3,0.2-0.6,0.2-1c0-0.7-0.2-1.2-0.6-1.6c-0.4-0.4-1-0.6-1.7-0.6c-0.8,0-1.5,0.2-2,0.6
	c-0.6,0.4-1.1,1-1.5,1.9L6.6,8.1c0.5-1.2,1.3-2.1,2.3-2.8c1-0.7,2.3-1.1,3.8-1.1c1.2,0,2.2,0.2,3,0.6s1.5,0.9,2,1.6
	c0.5,0.7,0.7,1.5,0.7,2.5C18.4,9.5,18.3,10.1,18.1,10.6z"/>
</svg>
